<svg width="82" height="77" fill="none" xmlns="http://www.w3.org/2000/svg"><g id="Group 9" stroke="#344F10"><path id="Vector" d="m45.169 76.001-2.964-5.514m-26.38-49.078 7.41 13.786m0 0 3.4-11.58m-3.4 11.58-11.529-3.31m11.529 3.31 6.52 12.131m0 0 4.603-17.646m-4.602 17.646L14.28 42.915m15.476 4.411 7.706 14.338m0 0 6.162-23.16m-6.162 23.16-21.637-6.066m21.637 6.066 4.743 8.823m0 0C64.583 40.837 68.282 24.88 6.043 1.557"/><path id="Vector 12" d="M6.03 1.002c-14.025 66.99 2.328 70.587 36.05 69.486m13.9-22.058 2.059-3.224m11.326-17.73-6.693 10.477m0 0h8.752m-8.752 0-2.574-8.272m2.574 8.272-4.633 7.253m0 0h11.326m-11.326 0L52.376 55.6l13.385 1.103"/><path id="Vector 13" d="M44.654 67.179c31.251-.436 43.1-7.089 32.616-53.955"/><path id="Vector 14" d="M77.601 13.69c-11.3 2.618-17.172 4.864-24.71 13.786"/></g></svg>