<svg width="80" height="70" fill="none" xmlns="http://www.w3.org/2000/svg"><g id="Group 11"><g id="Group 8"><path id="Vector 12" d="m60.701 11.858-4.154 3.001C45.341-.177 39.272-8.2 19.922 18.611l13.593 8.253c1.932-6.453 3.558-9.74 7.552-15.006l4.531 9.004-4.53 3.376c5.48.525 8.416.594 13.215 0 3.253-3.91 4.754-6.507 6.42-12.38Z" stroke="#344F10"/></g><g id="Group 8.1"><path id="Vector 12_2" d="m51.143 61.98-.628-5.126c18.399-2.811 28.26-4.39 14.19-34.386l-13.644 8.167c4.685 4.794 6.766 7.808 9.436 13.87l-9.979-.256-.774-5.642c-3.067 4.629-4.525 7.208-6.296 11.763 1.847 4.758 3.387 7.332 7.695 11.61Z" stroke="#344F10"/></g><g id="Group 8.2"><path id="Vector 12_3" d="m9.04 28.364 4.734 1.93C7.283 47.944 3.867 57.44 36.603 59.528l-.44-16.04c-6.413 1.823-10.026 2.204-16.56 1.63l5.06-8.711 5.25 2.05c-2.511-4.96-4.033-7.502-7.11-11.277-5.007-.672-7.977-.556-13.762 1.183Z" stroke="#344F10"/></g></g></svg>